# xmcd
#
# Track frame offsets: 
#        150
#        16840
#        33377
#        49080
#        68685
#        81932
#        99217
#        119980
#        137515
#        153340
#        168340
#        182970
#        200600
#        219092
#        241570
#
# Disc length: 3393 seconds
#
# Revision: 1
# Processed by: cddbd v1.5.2PL0 Copyright (c) Steve Scherf et al.
# Submitted via: ExactAudioCopyFreeDBPlugin 1.0
#
DISCID=c00d3f0f
DTITLE=費玉清 - 脈脈聲情 [Disc 2]
DYEAR=2006
DGENRE=Vocal
TTITLE0=天上人間
TTITLE1=鳳凰于飛
TTITLE2=星心相印
TTITLE3=何必旁人來說媒
TTITLE4=何日君在來
TTITLE5=原鄉人
TTITLE6=再見我的愛人
TTITLE7=償還
TTITLE8=我怎能離開你
TTITLE9=夜來香
TTITLE10=高崗上
TTITLE11=春天裡
TTITLE12=天涯歌女
TTITLE13=勿忘我
TTITLE14=我有個好家庭
EXTD=
EXTT0=
EXTT1=
EXTT2=
EXTT3=
EXTT4=
EXTT5=
EXTT6=
EXTT7=
EXTT8=
EXTT9=
EXTT10=
EXTT11=
EXTT12=
EXTT13=
EXTT14=
PLAYORDER=
